# xmcd
#
# Track frame offsets:
#	150
#	23537
#	53387
#	77062
#	97925
#	117287
#	135250
#	152525
#	167875
#	188387
#	208237
#	231130
#	251250
#	277725
#	294350
#	316312
#
# Disc length: 4479 seconds
#
# Revision: 1
# Processed by: cddbd v1.5.1PL0 Copyright (c) Steve Scherf et al.
# Submitted via: CDex 1.50Beta5
#
DISCID=ba117d10
DTITLE=SMAP - SMAP單曲全集
DYEAR=1900
DGENRE=Pop
TTITLE0=Can't Stop!!-Loving-
TTITLE1=SMAP MEDLEY
TTITLE2=正義の味方はあてにならない
TTITLE3=KIIS OF FIRE
TTITLE4=心の鏡
TTITLE5=負けるなBaby!〜Never give up
TTITLE6=BEST FRIEND
TTITLE7=スマイル戦士 音レンジャー
TTITLE8=笑顔のゲンキ
TTITLE9=ブラブラさせて
TTITLE10=雪が降ってきた
TTITLE11=100万の言葉
TTITLE12=ずっと忘れない
TTITLE13=君を微笑みにかえて
TTITLE14=はじめての夏
TTITLE15=これから海へ行こうよ
EXTD=
EXTT0=
EXTT1=
EXTT2=
EXTT3=
EXTT4=
EXTT5=
EXTT6=
EXTT7=
EXTT8=
EXTT9=
EXTT10=
EXTT11=
EXTT12=
EXTT13=
EXTT14=
EXTT15=
PLAYORDER=
